<svg width="49" height="80" viewBox="0 0 49 80" fill="none" xmlns="http://www.w3.org/2000/svg">
<path fill-rule="evenodd" clip-rule="evenodd" d="M12.2623 41.4901C7.65436 36.0814 4.53563 29.4529 5.05678 22.0255C6.55833 0.624979 36.3485 5.33281 42.1433 16.1339C47.9382 26.9351 47.2496 54.333 39.7603 56.2635C36.7736 57.0333 30.411 55.1475 23.9354 51.2443L28 80H4L12.2623 41.4901Z" fill="#FDD0A6"/>
<path fill-rule="evenodd" clip-rule="evenodd" d="M10.4181 46.3075C7.4059 32.9065 -1.17547 23.7714 0.135114 17.7817C1.00883 13.7886 3.33756 11.3054 7.1213 10.3321C9.07821 2.4155 15.3896 -0.951751 26.0556 0.230376C42.0546 2.00357 51.8195 8.64776 47.6025 23.2679C43.7261 23.2679 39.0465 21.866 32.5755 24.2679C30.5223 25.03 29.0538 27.3934 28.17 31.358H25.2458C22.4077 26.6531 19.6094 24.9241 16.8508 26.1712C14.0922 27.4183 13.4651 30.4474 14.9695 35.2586L13.5291 46.3075H10.4181Z" fill="#0E0E0E"/>
</svg>
