<svg width="309" height="481" viewBox="0 0 309 481" fill="none" xmlns="http://www.w3.org/2000/svg">
<path fill-rule="evenodd" clip-rule="evenodd" d="M107.204 201.756C109.313 230.433 245.195 314.861 245.988 317.23C246.34 318.283 232.242 351.564 203.693 417.072L215.571 421.67C259.36 352.292 280.13 313.906 277.881 306.514C274.661 295.93 239.518 261.112 172.452 202.062L107.204 201.756Z" fill="#B28B67"/>
<path fill-rule="evenodd" clip-rule="evenodd" d="M206.819 402.278L226.212 409.31C267.104 363.349 283.133 325.427 280.211 306.105C278.262 293.224 243.24 258.464 175.145 201.826L105.813 201.826C108.179 268.238 234.124 317.483 235.809 320.313C237.493 323.143 220.915 350.86 206.819 402.278Z" fill="#2F3676"/>
<path fill-rule="evenodd" clip-rule="evenodd" d="M199.292 414.878C196.867 417.713 195.358 419.946 194.765 421.576C194.043 423.558 193.321 426.571 192.597 430.614C194.897 431.451 215.563 438.973 254.596 453.18C258.146 448.44 258.263 445.226 254.946 443.538C251.629 441.85 248.885 440.417 246.714 439.239L222.573 415.904C222.108 415.455 221.368 415.467 220.919 415.932C220.911 415.94 220.904 415.948 220.896 415.956L217.409 419.775C213.649 420.105 210.765 419.904 208.756 419.173C207.124 418.579 205.11 417.099 202.713 414.734L202.713 414.734C201.794 413.826 200.312 413.836 199.405 414.755C199.366 414.795 199.328 414.836 199.292 414.878Z" fill="#2C2C2C"/>
<path fill-rule="evenodd" clip-rule="evenodd" d="M122.828 201.756L62.2959 346.514L2.80261 468.894H16.839L170.407 201.756H122.828Z" fill="#997659"/>
<path fill-rule="evenodd" clip-rule="evenodd" d="M1.96306 463.359C0.654352 466.853 0 469.467 0 471.201C0 473.311 0.35142 476.389 1.05426 480.436C3.50138 480.436 25.4941 480.436 67.0323 480.436C68.7468 474.768 67.7571 471.708 64.0631 471.256C60.3691 470.804 57.3005 470.396 54.8571 470.032L24.1912 456.361C23.6011 456.097 22.9095 456.363 22.6464 456.953C22.6419 456.963 22.6376 456.973 22.6334 456.983L20.6622 461.765C17.2425 463.36 14.4637 464.158 12.3257 464.158C10.5886 464.158 8.18966 463.456 5.1289 462.053L5.12891 462.053C3.95432 461.515 2.56564 462.031 2.02719 463.205C2.00398 463.256 1.98259 463.307 1.96306 463.359Z" fill="#2C2C2C"/>
<path fill-rule="evenodd" clip-rule="evenodd" d="M8.17511 443.471L39.3641 449.298C63.4794 413.981 164.403 269.169 175.468 201.756H106.034C69.0816 250.489 31.1619 407.57 8.17511 443.471Z" fill="#5C63AB"/>
<path fill-rule="evenodd" clip-rule="evenodd" d="M144.483 60.8932C140.77 53.5044 139.09 45.1648 141.764 36.9564C149.471 13.306 181.964 27.0328 185.512 40.8239C189.059 54.615 180.593 85.2427 171.551 85.295C167.945 85.3158 161.252 81.3937 154.997 75.1701L151.544 108.67L124.304 101.878L144.483 60.8932Z" fill="#B28B67"/>
<path fill-rule="evenodd" clip-rule="evenodd" d="M186.723 46.921C186.846 45.2787 186.623 43.3652 186.462 41.7424C186.255 39.6503 185.649 37.6595 184.913 35.7422C183.528 32.1327 181.64 28.7142 179.365 25.7005C175.211 20.1957 169.191 16.1173 162.481 15.2813C159.092 14.8591 155.59 15.3065 152.356 16.6987C149.434 17.9565 146.386 20.1205 143.158 19.5256C139.645 18.8781 137.229 15.0612 134.92 12.5005C132.317 9.61346 129.373 7.24839 125.865 5.74003C119.99 3.21351 113.725 3.82991 108.262 7.75794C102.449 11.938 97.2463 18.8962 98.4451 26.654C98.668 28.0961 99.0989 29.3725 99.8839 30.537C100.604 31.6048 101.8 32.8482 101.843 34.2785C101.889 35.7988 100.237 37.3336 99.4546 38.5C98.3332 40.171 97.3078 41.9629 97.0038 44.0073C96.5047 47.3648 97.8029 51.0124 99.4604 53.7142C101.147 56.4636 103.583 58.4063 106.374 59.7179C108.238 60.5936 110.188 61.3067 112.217 61.6581C113.224 61.8327 114.165 61.778 115.177 61.8003C116.162 61.8221 116.621 62.1972 117.286 62.9009C120.372 66.1703 124.094 68.0655 128.423 68.773C132.076 69.3699 136.416 69.5388 139.942 67.836C143.858 65.9448 144.721 62.206 144.95 58.0382C145.659 58.6369 147.835 59.4405 146.893 57.5243C146.52 56.7654 145.583 56.2609 144.995 55.7228C144.311 55.0962 143.647 54.3411 143.207 53.4876C141.432 50.0415 145.372 44.9114 148.725 44.7403C153.708 44.4862 153.127 51.2368 156.014 53.7404C157.674 55.1799 159.992 54.356 161.752 53.3636C164.11 52.034 166.007 49.9667 167.736 47.8129C169.161 46.0393 170.528 44.2215 171.967 42.4623C172.64 41.6408 174.82 39.388 174.317 38.1443C177.798 38.3157 181.152 40.6033 183.562 43.1074C184.559 44.1426 185.255 45.1837 185.559 46.6485C185.624 46.9623 185.71 47.8685 186.071 47.9946C186.741 48.2294 186.692 47.3336 186.723 46.921Z" fill="#191847"/>
<path fill-rule="evenodd" clip-rule="evenodd" d="M218.778 191.63L255.611 219.542C265.682 222.436 274.077 225.964 280.796 230.126C282.374 231.608 284.261 234.587 277.619 233.962C270.977 233.337 263.962 232.977 263.005 235.218C262.048 237.459 266.026 240.229 264.118 243.243C262.845 245.252 257.092 240.058 246.856 227.662L210.177 211.773L218.778 191.63ZM75.5163 190.07L99.9564 190.593C84.0186 238.808 75.4223 264.388 74.1677 267.333C71.3448 273.96 76.8945 284.224 79.2483 289.73C71.2095 293.142 72.289 280.003 62.1452 284.486C52.8864 288.578 45.7653 296.16 35.2676 289.459C33.9769 288.635 32.5999 285.595 36.0953 283.298C44.8034 277.576 57.3841 267.516 59.1188 264.163C61.4843 259.59 66.9502 234.892 75.5163 190.07Z" fill="#B28B67"/>
<path fill-rule="evenodd" clip-rule="evenodd" d="M146.757 89.2275L156.901 87.6778C193.863 120.589 208.194 182.827 253.617 216.457L242.308 229.919C162.685 218.695 144.226 142.763 146.757 89.2275Z" fill="#E87613"/>
<path fill-rule="evenodd" clip-rule="evenodd" d="M100.461 214.931C141.014 215.639 170.843 216.159 189.95 216.493C194.039 216.564 193.371 210.675 192.832 207.7C186.607 173.363 160.619 136.014 161.47 87.3057L135.727 82.8274C113.78 116.623 105.663 158.563 100.461 214.931Z" fill="#DDE3E9"/>
<path fill-rule="evenodd" clip-rule="evenodd" d="M102.91 115.851C99.1798 114.713 96.2547 112.16 94.1347 108.193C84.9958 91.0879 88.5659 81.8207 98.7019 78.931C108.838 76.0413 117.719 82.5131 133.784 82.7935C134.657 82.8087 135.457 82.8772 136.182 82.9989L144.254 83.5988C166.074 162.191 171.557 214.468 160.705 240.431L90.2706 239.201C85.9284 248.811 81.7928 256.889 77.8639 263.433L58.6718 263.098C57.8799 204.952 72.626 155.87 102.91 115.851Z" fill="#FF9B21"/>
<path fill-rule="evenodd" clip-rule="evenodd" d="M106.309 199.313C108.202 217.795 111.569 231.243 116.409 239.657L90.2706 239.201C95.3356 227.991 100.682 214.695 106.309 199.313Z" fill="black" fill-opacity="0.1"/>
</svg>
