<svg width="736" height="441" viewBox="0 0 736 441" fill="none" xmlns="http://www.w3.org/2000/svg">
<g clip-path="url(#clip0)">
<path d="M285.756 395.126C281.796 396.518 277.544 396.867 273.41 396.138C269.275 395.41 265.398 393.63 262.152 390.968C253.885 384.03 251.293 372.598 249.184 362.014L242.946 330.706L256.006 339.698C265.398 346.165 275.002 352.839 281.505 362.206C288.008 371.572 290.847 384.359 285.622 394.494" fill="#E6E6E6"/>
<path d="M284.64 433.031C285.961 423.403 287.321 413.651 286.393 403.919C285.57 395.277 282.933 386.836 277.565 379.915C274.716 376.248 271.248 373.106 267.319 370.631C266.295 369.984 265.352 371.608 266.372 372.252C273.17 376.548 278.429 382.892 281.389 390.37C284.658 398.685 285.183 407.75 284.62 416.583C284.279 421.925 283.557 427.232 282.829 432.532C282.772 432.771 282.808 433.024 282.93 433.238C283.051 433.452 283.25 433.613 283.485 433.686C283.725 433.751 283.981 433.718 284.197 433.596C284.413 433.473 284.572 433.27 284.64 433.031Z" fill="#F2F2F2"/>
<path d="M271.908 415.993C270.209 418.575 267.874 420.675 265.129 422.092C262.383 423.51 259.318 424.196 256.23 424.085C248.293 423.708 241.677 418.169 235.721 412.911L218.104 397.357L229.764 396.799C238.148 396.398 246.749 396.024 254.736 398.609C262.722 401.195 270.087 407.418 271.547 415.683" fill="#E6E6E6"/>
<path d="M288.375 438.565C282.013 427.308 274.633 414.797 261.447 410.798C257.78 409.69 253.936 409.293 250.12 409.629C248.918 409.732 249.218 411.586 250.418 411.483C256.814 410.952 263.197 412.64 268.494 416.264C273.59 419.733 277.558 424.556 280.917 429.67C282.974 432.803 284.817 436.069 286.66 439.33C287.249 440.372 288.971 439.62 288.375 438.565V438.565Z" fill="#F2F2F2"/>
<path d="M458.905 213.053L320.195 328.011C318.45 329.454 316.203 330.146 313.948 329.935C311.693 329.724 309.614 328.627 308.167 326.885L249.694 256.338C248.251 254.593 247.559 252.346 247.77 250.091C247.981 247.837 249.078 245.758 250.82 244.311L389.53 129.352C391.276 127.909 393.522 127.217 395.777 127.428C398.032 127.639 400.111 128.736 401.558 130.478L460.031 201.026C461.474 202.771 462.166 205.017 461.955 207.272C461.744 209.527 460.647 211.606 458.905 213.053Z" fill="#CCCCCC"/>
<path d="M453.347 209.591L317.825 321.907C316.926 322.65 315.769 323.007 314.607 322.898C313.446 322.789 312.374 322.224 311.629 321.327L255.799 253.968C255.056 253.069 254.699 251.912 254.808 250.75C254.917 249.589 255.482 248.518 256.379 247.772L391.9 135.457C392.8 134.713 393.957 134.357 395.118 134.465C396.28 134.574 397.351 135.139 398.097 136.037L453.927 203.396C454.67 204.295 455.027 205.452 454.918 206.613C454.809 207.775 454.244 208.846 453.347 209.591Z" fill="white"/>
<path d="M459.594 233.102L431.72 230.494L451.67 214.793L462.417 227.759C462.836 228.254 463.096 228.864 463.163 229.509C463.229 230.154 463.1 230.804 462.791 231.374C462.588 231.761 462.311 232.104 461.975 232.384C461.646 232.655 461.265 232.859 460.857 232.982C460.448 233.105 460.019 233.146 459.594 233.102Z" fill="#CCCCCC"/>
<path d="M403.619 183.178L335.061 239.997C334.643 240.344 334.16 240.605 333.64 240.766C333.12 240.926 332.574 240.982 332.032 240.932C331.491 240.881 330.965 240.724 330.484 240.47C330.003 240.216 329.577 239.87 329.23 239.451C328.883 239.032 328.621 238.549 328.461 238.03C328.301 237.51 328.244 236.964 328.295 236.422C328.346 235.881 328.502 235.355 328.757 234.874C329.011 234.393 329.357 233.967 329.776 233.62L398.333 176.801C398.752 176.454 399.235 176.193 399.755 176.033C400.275 175.872 400.821 175.816 401.362 175.866C401.904 175.917 402.43 176.074 402.911 176.328C403.392 176.582 403.818 176.928 404.165 177.347C404.512 177.766 404.773 178.249 404.934 178.769C405.094 179.288 405.151 179.834 405.1 180.376C405.049 180.917 404.892 181.444 404.638 181.924C404.384 182.405 404.038 182.831 403.619 183.178Z" fill="#CCCCCC"/>
<path d="M370.066 188.126L323.829 226.445C322.984 227.146 321.894 227.483 320.8 227.38C319.707 227.278 318.699 226.745 317.998 225.9C317.297 225.054 316.96 223.964 317.063 222.871C317.165 221.777 317.698 220.769 318.544 220.068L364.78 181.749C365.626 181.048 366.715 180.712 367.809 180.814C368.903 180.916 369.911 181.449 370.612 182.295C371.313 183.14 371.649 184.23 371.547 185.323C371.444 186.417 370.912 187.425 370.066 188.126Z" fill="#CCCCCC"/>
<path d="M298.422 266.495C305.57 266.495 311.365 260.701 311.365 253.553C311.365 246.405 305.57 240.611 298.422 240.611C291.274 240.611 285.48 246.405 285.48 253.553C285.48 260.701 291.274 266.495 298.422 266.495Z" fill="#6C63FF"/>
<path d="M401.374 227.611C403.661 227.611 405.515 225.757 405.515 223.47C405.515 221.182 403.661 219.328 401.374 219.328C399.087 219.328 397.232 221.182 397.232 223.47C397.232 225.757 399.087 227.611 401.374 227.611Z" fill="#E6E6E6"/>
<path d="M412.535 218.362C414.822 218.362 416.676 216.507 416.676 214.22C416.676 211.933 414.822 210.079 412.535 210.079C410.247 210.079 408.393 211.933 408.393 214.22C408.393 216.507 410.247 218.362 412.535 218.362Z" fill="#E6E6E6"/>
<path d="M423.695 209.112C425.982 209.112 427.837 207.258 427.837 204.971C427.837 202.683 425.982 200.829 423.695 200.829C421.408 200.829 419.553 202.683 419.553 204.971C419.553 207.258 421.408 209.112 423.695 209.112Z" fill="#E6E6E6"/>
<path d="M357.684 431.354L367.192 431.353L371.715 394.68L357.682 394.681L357.684 431.354Z" fill="#FFB8B8"/>
<path d="M355.259 428.249L373.983 428.249H373.984C375.551 428.249 377.103 428.557 378.551 429.157C379.999 429.757 381.314 430.635 382.422 431.743C383.53 432.851 384.409 434.167 385.009 435.615C385.609 437.062 385.917 438.614 385.917 440.181V440.569L355.259 440.57L355.259 428.249Z" fill="#2F2E41"/>
<path d="M323.559 431.354L333.067 431.353L337.59 394.68L323.558 394.681L323.559 431.354Z" fill="#FFB8B8"/>
<path d="M321.134 428.249L339.859 428.249H339.86C341.427 428.249 342.979 428.557 344.426 429.157C345.874 429.757 347.19 430.635 348.298 431.743C349.406 432.851 350.285 434.167 350.884 435.615C351.484 437.062 351.793 438.614 351.793 440.181V440.569L321.135 440.57L321.134 428.249Z" fill="#2F2E41"/>
<path d="M333.101 420.133H333.099L325.014 420.13C324.109 420.133 323.239 419.784 322.588 419.156C321.937 418.528 321.557 417.67 321.528 416.766L321.273 409.693C319.229 353.126 317.115 294.634 330.205 268.343L330.308 268.137L373.646 266.568L382.346 346.377C382.718 349.782 382.582 353.222 381.943 356.586L370.441 417.192C370.286 418.014 369.84 418.752 369.186 419.273C368.531 419.793 367.712 420.062 366.876 420.029L357.794 419.734C357.318 419.715 356.852 419.6 356.423 419.394C355.993 419.188 355.611 418.897 355.298 418.538C354.986 418.179 354.75 417.759 354.606 417.306C354.461 416.852 354.411 416.374 354.458 415.901L361.592 359.847C361.835 357.427 361.616 354.984 360.945 352.647L352.072 321.631C351.999 321.374 351.839 321.151 351.621 320.998C351.402 320.845 351.138 320.771 350.872 320.79C350.606 320.809 350.354 320.918 350.159 321.1C349.964 321.283 349.838 321.526 349.801 321.79L336.557 417.123C336.438 417.956 336.024 418.719 335.389 419.271C334.755 419.824 333.942 420.13 333.101 420.133Z" fill="#2F2E41"/>
<path d="M338.283 186.777C348.804 186.777 357.332 178.249 357.332 167.729C357.332 157.21 348.804 148.682 338.283 148.682C327.763 148.682 319.235 157.21 319.235 167.729C319.235 178.249 327.763 186.777 338.283 186.777Z" fill="#FFB8B8"/>
<path d="M371.614 272.459H332.198C331.697 272.459 331.202 272.352 330.747 272.143C330.291 271.935 329.886 271.631 329.558 271.252C329.231 270.873 328.988 270.428 328.848 269.947C328.708 269.466 328.672 268.961 328.745 268.465L330.692 255.129L319.257 223.679C318.077 220.432 317.638 216.963 317.974 213.524C318.309 210.086 319.41 206.766 321.195 203.809C322.981 200.851 325.406 198.331 328.293 196.433C331.179 194.535 334.454 193.307 337.877 192.839C342.755 192.159 347.721 193.058 352.05 195.405C356.38 197.752 359.844 201.422 361.936 205.88L364.447 211.224L375.046 268.334C375.139 268.837 375.121 269.355 374.991 269.851C374.862 270.346 374.625 270.807 374.298 271.201C373.97 271.595 373.56 271.912 373.096 272.129C372.633 272.347 372.127 272.46 371.614 272.459H371.614Z" fill="#6C63FF"/>
<path d="M288.408 305.912C289.594 305.637 290.706 305.104 291.664 304.353C292.623 303.601 293.405 302.649 293.955 301.562C294.506 300.476 294.811 299.282 294.85 298.064C294.889 296.847 294.661 295.636 294.182 294.516L324.895 225.129L307.325 220.704L282.66 290.301C280.832 291.231 279.409 292.8 278.661 294.709C277.913 296.618 277.891 298.735 278.599 300.66C279.308 302.584 280.698 304.181 282.506 305.15C284.313 306.118 286.413 306.389 288.408 305.912H288.408Z" fill="#FFB8B8"/>
<path d="M320.738 237.539L303.649 229.54C303.163 229.313 302.732 228.983 302.385 228.574C302.037 228.164 301.782 227.685 301.637 227.168C301.492 226.652 301.459 226.11 301.543 225.579C301.626 225.049 301.822 224.543 302.118 224.095L312.503 208.412C313.683 205.933 315.797 204.022 318.383 203.099C320.968 202.175 323.815 202.315 326.298 203.486C328.781 204.657 330.699 206.765 331.631 209.347C332.563 211.93 332.433 214.776 331.27 217.263L325.9 235.226C325.746 235.741 325.483 236.216 325.129 236.619C324.775 237.023 324.338 237.345 323.848 237.565C323.358 237.784 322.827 237.895 322.29 237.891C321.753 237.886 321.224 237.766 320.738 237.539H320.738Z" fill="#6C63FF"/>
<path d="M416.53 127.358C416.901 128.519 417.013 129.746 416.858 130.954C416.704 132.162 416.286 133.321 415.635 134.351C414.983 135.38 414.114 136.254 413.089 136.911C412.063 137.568 410.906 137.992 409.698 138.153L365.826 200.066L353.028 187.242L400.177 130.416C400.04 128.37 400.659 126.345 401.916 124.724C403.172 123.104 404.98 122.001 406.996 121.624C409.011 121.247 411.095 121.623 412.853 122.68C414.61 123.736 415.918 125.401 416.53 127.358Z" fill="#FFB8B8"/>
<path d="M375.972 192.799C376.034 193.332 375.981 193.873 375.816 194.383C375.651 194.894 375.377 195.363 375.014 195.758L362.334 209.57C360.794 211.844 358.415 213.415 355.719 213.938C353.023 214.461 350.229 213.893 347.95 212.36C345.672 210.826 344.094 208.452 343.564 205.757C343.033 203.062 343.593 200.267 345.121 197.984L353.274 181.033C353.506 180.549 353.841 180.121 354.254 179.779C354.667 179.436 355.149 179.186 355.667 179.046C356.185 178.906 356.728 178.88 357.257 178.968C357.787 179.057 358.291 179.259 358.735 179.56L374.356 190.14C374.801 190.441 375.176 190.834 375.454 191.293C375.733 191.752 375.91 192.266 375.972 192.799Z" fill="#6C63FF"/>
<path d="M363.312 159.757C363.3 158.033 363.06 156.318 362.599 154.657C359.531 143.317 348.201 136.511 336.832 138.219C334.62 137.585 332.331 137.264 330.031 137.267C324.179 137.267 318.521 139.359 314.077 143.166C309.633 146.972 306.696 152.243 305.798 158.025L296.614 217.145H346.25L354.264 165.553C354.562 163.636 354.632 161.69 354.473 159.757H363.312Z" fill="#2F2E41"/>
<path d="M425.003 441H261.361C261.156 441 260.959 440.918 260.813 440.773C260.668 440.627 260.586 440.43 260.586 440.225C260.586 440.019 260.668 439.822 260.813 439.676C260.959 439.531 261.156 439.449 261.361 439.449H425.003C425.209 439.449 425.406 439.531 425.552 439.676C425.697 439.822 425.779 440.019 425.779 440.225C425.779 440.43 425.697 440.627 425.552 440.773C425.406 440.918 425.209 441 425.003 441Z" fill="#CCCCCC"/>
<path d="M589.863 60.2325C590.998 60.1233 592.143 60.2642 593.217 60.6454C594.292 61.0266 595.27 61.6387 596.082 62.4387C596.894 63.2386 597.521 64.207 597.919 65.2755C598.317 66.344 598.475 67.4867 598.383 68.623L623.749 79.7866L611.649 87.5967L589.416 75.7982C587.517 75.5175 585.787 74.5499 584.554 73.079C583.321 71.608 582.67 69.7358 582.725 67.8171C582.78 65.8984 583.537 64.0666 584.853 62.6687C586.168 61.2708 587.951 60.404 589.863 60.2325V60.2325Z" fill="#A0616A"/>
<path d="M692.183 46.3067C702.703 46.3067 711.231 37.7788 711.231 27.2592C711.231 16.7395 702.703 8.21165 692.183 8.21165C681.663 8.21165 673.134 16.7395 673.134 27.2592C673.134 37.7788 681.663 46.3067 692.183 46.3067Z" fill="#A0616A"/>
<path d="M657.708 298.856L648.2 298.856L643.677 262.183L657.709 262.184L657.708 298.856Z" fill="#A0616A"/>
<path d="M660.133 308.072L629.475 308.071V307.684C629.475 306.117 629.783 304.565 630.383 303.117C630.983 301.669 631.862 300.354 632.97 299.246C634.078 298.138 635.393 297.259 636.841 296.659C638.289 296.06 639.841 295.751 641.408 295.751H641.408L660.133 295.752L660.133 308.072Z" fill="#2F2E41"/>
<path d="M697.261 298.856L687.753 298.856L683.23 262.183L697.263 262.184L697.261 298.856Z" fill="#A0616A"/>
<path d="M699.686 308.072L669.028 308.071V307.684C669.028 306.117 669.336 304.565 669.936 303.117C670.536 301.669 671.415 300.354 672.523 299.246C673.631 298.138 674.946 297.259 676.394 296.659C677.842 296.06 679.394 295.751 680.961 295.751H680.962L699.686 295.752L699.686 308.072Z" fill="#2F2E41"/>
<path d="M696.81 291.045C696.668 291.045 696.526 291.036 696.385 291.019L682.467 289.306C681.651 289.207 680.898 288.823 680.338 288.222C679.778 287.621 679.449 286.841 679.408 286.021L675.352 194.693C675.338 194.434 675.238 194.187 675.068 193.992C674.897 193.796 674.666 193.663 674.412 193.613C674.157 193.564 673.893 193.601 673.662 193.719C673.431 193.837 673.245 194.029 673.136 194.264L662.717 228.995L660.571 284.783C660.553 285.264 660.435 285.736 660.225 286.169C660.015 286.603 659.718 286.988 659.352 287.301C658.987 287.614 658.56 287.847 658.099 287.987C657.638 288.127 657.154 288.17 656.676 288.114L644.623 286.695C643.762 286.596 642.968 286.179 642.398 285.526C641.828 284.872 641.522 284.029 641.542 283.161L642.565 230.648L650.731 148.217L651.096 148.231L700.748 150.144L700.301 287.567C700.298 288.491 699.928 289.375 699.274 290.027C698.62 290.679 697.734 291.045 696.81 291.045H696.81Z" fill="#2F2E41"/>
<path d="M698.867 157.677C698.836 157.677 698.806 157.677 698.776 157.676L648.769 156.366C648.279 156.353 647.797 156.237 647.354 156.026C646.912 155.814 646.519 155.512 646.201 155.138C645.884 154.765 645.648 154.329 645.511 153.858C645.373 153.387 645.336 152.893 645.402 152.407L655.011 81.6868C655.611 76.9116 657.212 72.3167 659.708 68.2019C662.204 64.0872 665.54 60.5452 669.499 57.8071C672.98 55.4104 676.935 53.7865 681.096 53.0445C685.257 52.3026 689.529 52.4597 693.625 53.5054C711.079 57.9283 721.55 76.6702 716.967 95.2841L702.256 155.022C702.066 155.778 701.63 156.449 701.016 156.93C700.403 157.411 699.646 157.673 698.867 157.677Z" fill="#3F3D56"/>
<path d="M633.262 101.519C629.967 101.523 626.742 100.564 623.984 98.7618L594.821 79.6299C594.394 79.3499 594.034 78.9797 593.766 78.5453C593.497 78.111 593.328 77.623 593.269 77.116C593.21 76.6089 593.263 76.0951 593.424 75.6107C593.585 75.1263 593.85 74.6832 594.202 74.3126L598.595 69.6746C599.074 69.1662 599.695 68.8139 600.377 68.6635C601.059 68.5132 601.771 68.5718 602.419 68.8317L634.994 81.8027L665.17 60.254C666.581 59.2465 668.186 58.5428 669.883 58.1875C671.58 57.8321 673.332 57.8329 675.029 58.1897C676.725 58.5465 678.33 59.2516 679.74 60.2603C681.15 61.269 682.335 62.5595 683.221 64.0499C684.107 65.5404 684.673 67.1985 684.885 68.9193C685.097 70.6401 684.949 72.3861 684.451 74.0468C683.954 75.7076 683.117 77.247 681.993 78.5675C680.87 79.8881 679.484 80.9611 677.925 81.7186L640.63 99.8327C638.333 100.945 635.814 101.521 633.262 101.519Z" fill="#3F3D56"/>
<path d="M698.783 45.4746C702.033 46.2419 705.953 46.8307 708.276 44.4316C708.687 43.9787 709.055 43.488 709.374 42.9658L712.41 38.3303C714.736 34.7792 717.103 31.1355 718.088 27.0063C718.653 24.6336 718.742 22.1721 718.348 19.7648C717.955 17.3576 717.087 15.0526 715.794 12.9837C714.502 10.9147 712.812 9.1232 710.822 7.71307C708.831 6.30294 706.58 5.30234 704.2 4.7694C699.666 3.75439 695.23 2.00796 690.595 2.32653C685.96 2.6451 680.525 2.54051 676.635 -2.28882e-05C676.878 1.13259 678.188 6.13696 678.188 6.13696C678.188 6.13696 672.339 11.5025 671.166 12.8404C672.702 12.1597 674.373 11.8402 676.051 11.9062C677.729 11.9722 679.37 12.4222 680.847 13.2214C682.324 14.0206 683.599 15.1478 684.572 16.5164C685.546 17.885 686.192 19.4585 686.463 21.1161C686.795 23.1525 686.6 25.4109 687.81 27.0823C688.96 28.672 691.024 29.2289 692.759 30.1468C695.26 31.5713 697.169 33.8425 698.143 36.5506C699.116 39.2588 699.09 42.2257 698.069 44.9163L698.783 45.4746Z" fill="#2F2E41"/>
<path d="M675.913 164.499H518.018C516.033 164.496 514.13 163.707 512.727 162.304C511.323 160.9 510.534 158.997 510.532 157.013V76.708C510.534 74.7233 511.323 72.8205 512.727 71.417C514.13 70.0136 516.033 69.2242 518.018 69.2219H675.913C677.897 69.2242 679.8 70.0136 681.204 71.417C682.607 72.8205 683.397 74.7233 683.399 76.708V157.013C683.397 158.997 682.607 160.9 681.204 162.304C679.8 163.707 677.897 164.496 675.913 164.499Z" fill="#CCCCCC"/>
<path d="M674.098 159.054H519.833C518.81 159.053 517.83 158.646 517.107 157.924C516.384 157.201 515.977 156.22 515.976 155.198V78.5228C515.977 77.5004 516.384 76.5201 517.107 75.7971C517.83 75.0742 518.81 74.6675 519.833 74.6664H674.098C675.12 74.6675 676.1 75.0742 676.823 75.7971C677.546 76.5201 677.953 77.5004 677.954 78.5228V155.198C677.953 156.22 677.546 157.201 676.823 157.924C676.1 158.646 675.12 159.053 674.098 159.054Z" fill="white"/>
<path d="M665.164 178.413L647.814 161.065L670.057 161.627V176.386C670.063 176.954 669.897 177.511 669.582 177.984C669.266 178.456 668.815 178.822 668.287 179.034C667.934 179.182 667.555 179.259 667.172 179.26C666.798 179.259 666.428 179.183 666.083 179.038C665.738 178.892 665.426 178.68 665.164 178.413Z" fill="#CCCCCC"/>
<path d="M655.315 113.422H577.275C576.312 113.422 575.389 113.039 574.709 112.359C574.028 111.678 573.645 110.755 573.645 109.792C573.645 108.83 574.028 107.906 574.709 107.226C575.389 106.545 576.312 106.163 577.275 106.163H655.315C656.278 106.163 657.201 106.545 657.882 107.226C658.562 107.906 658.945 108.83 658.945 109.792C658.945 110.755 658.562 111.678 657.882 112.359C657.201 113.039 656.278 113.422 655.315 113.422Z" fill="#CCCCCC"/>
<path d="M629.907 97.9962H577.275C576.798 97.9968 576.326 97.9035 575.885 97.7214C575.444 97.5393 575.043 97.2721 574.705 96.935C574.368 96.5978 574.1 96.1975 573.917 95.7568C573.734 95.3161 573.64 94.8436 573.64 94.3665C573.64 93.8895 573.734 93.4171 573.917 92.9764C574.1 92.5356 574.368 92.1353 574.705 91.7982C575.043 91.4611 575.444 91.1938 575.885 91.0117C576.326 90.8297 576.798 90.7363 577.275 90.737H629.907C630.869 90.737 631.792 91.1194 632.473 91.8001C633.154 92.4807 633.536 93.4039 633.536 94.3665C633.536 95.3292 633.154 96.2524 632.473 96.9331C631.792 97.6137 630.869 97.9962 629.907 97.9962Z" fill="#CCCCCC"/>
<path d="M544.97 113.422C551.235 113.422 556.313 108.344 556.313 102.079C556.313 95.8152 551.235 90.737 544.97 90.737C538.706 90.737 533.627 95.8152 533.627 102.079C533.627 108.344 538.706 113.422 544.97 113.422Z" fill="#6C63FF"/>
<path d="M631.265 142.984C633.27 142.984 634.895 141.359 634.895 139.354C634.895 137.35 633.27 135.725 631.265 135.725C629.261 135.725 627.636 137.35 627.636 139.354C627.636 141.359 629.261 142.984 631.265 142.984Z" fill="#E6E6E6"/>
<path d="M643.97 142.984C645.974 142.984 647.599 141.359 647.599 139.354C647.599 137.35 645.974 135.725 643.97 135.725C641.965 135.725 640.34 137.35 640.34 139.354C640.34 141.359 641.965 142.984 643.97 142.984Z" fill="#E6E6E6"/>
<path d="M656.674 142.984C658.678 142.984 660.304 141.359 660.304 139.354C660.304 137.35 658.678 135.725 656.674 135.725C654.669 135.725 653.044 137.35 653.044 139.354C653.044 141.359 654.669 142.984 656.674 142.984Z" fill="#E6E6E6"/>
<path d="M673.468 154.949C673.593 153.815 673.965 152.724 674.558 151.75C675.151 150.776 675.951 149.944 676.9 149.313C677.849 148.681 678.925 148.266 680.053 148.095C681.18 147.925 682.331 148.003 683.425 148.326L699.543 125.782L704.712 139.224L688.613 158.571C687.95 160.372 686.649 161.867 684.956 162.773C683.264 163.679 681.298 163.933 679.432 163.487C677.565 163.04 675.926 161.924 674.827 160.351C673.728 158.777 673.244 156.855 673.468 154.949H673.468Z" fill="#A0616A"/>
<path d="M691.931 153.732C691.678 153.753 691.423 153.747 691.171 153.713C690.664 153.645 690.179 153.467 689.75 153.191C689.32 152.915 688.957 152.548 688.685 152.116L685.278 146.712C684.904 146.122 684.716 145.432 684.739 144.734C684.763 144.035 684.996 143.36 685.409 142.797L706.04 114.449L692.63 79.8793C691.432 76.8377 691.478 73.4472 692.756 70.4386C694.035 67.43 696.444 65.0443 699.466 63.7955C701.173 63.0796 703.017 62.7508 704.867 62.8329C706.716 62.915 708.524 63.4058 710.161 64.2702C711.798 65.1345 713.223 66.3509 714.334 67.8318C715.445 69.3126 716.213 71.0212 716.585 72.8347L724.905 113.451C725.483 116.316 725.313 119.281 724.409 122.06C723.505 124.839 721.9 127.338 719.747 129.314L693.991 152.832C693.423 153.351 692.699 153.668 691.931 153.732Z" fill="#3F3D56"/>
<path d="M735.224 309.938H571.583C571.377 309.938 571.18 309.856 571.034 309.71C570.889 309.565 570.807 309.368 570.807 309.162C570.807 308.956 570.889 308.759 571.034 308.614C571.18 308.468 571.377 308.387 571.583 308.387H735.224C735.43 308.387 735.627 308.468 735.773 308.614C735.918 308.759 736 308.956 736 309.162C736 309.368 735.918 309.565 735.773 309.71C735.627 309.856 735.43 309.938 735.224 309.938Z" fill="#CCCCCC"/>
<path d="M199.021 116.93H41.1261C39.1413 116.927 37.2384 116.138 35.8349 114.734C34.4314 113.331 33.6419 111.428 33.6397 109.443V29.1389C33.6419 27.1541 34.4314 25.2513 35.8349 23.8479C37.2384 22.4445 39.1413 21.655 41.1261 21.6528H199.021C201.005 21.6551 202.908 22.4445 204.312 23.8479C205.715 25.2513 206.505 27.1541 206.507 29.1389V109.444C206.505 111.428 205.715 113.331 204.312 114.734C202.908 116.138 201.005 116.927 199.021 116.93Z" fill="#CCCCCC"/>
<path d="M197.206 111.485H42.941C41.9185 111.484 40.9382 111.077 40.2152 110.354C39.4922 109.631 39.0855 108.651 39.0844 107.629V30.9537C39.0855 29.9312 39.4922 28.951 40.2152 28.228C40.9382 27.505 41.9185 27.0984 42.941 27.0972H197.206C198.228 27.0984 199.208 27.505 199.931 28.228C200.654 28.951 201.061 29.9312 201.062 30.9537V107.629C201.061 108.651 200.654 109.631 199.931 110.354C199.208 111.077 198.228 111.484 197.206 111.485Z" fill="white"/>
<path d="M188.272 130.844L170.922 113.495L193.165 114.058V128.817C193.171 129.385 193.006 129.942 192.69 130.415C192.374 130.887 191.923 131.253 191.396 131.465C191.042 131.613 190.663 131.69 190.281 131.691C189.906 131.69 189.536 131.614 189.191 131.469C188.846 131.323 188.534 131.111 188.272 130.844Z" fill="#CCCCCC"/>
<path d="M178.423 65.8528H100.383C99.4206 65.8528 98.4973 65.4704 97.8166 64.7897C97.1359 64.109 96.7535 63.1858 96.7535 62.2232C96.7535 61.2606 97.1359 60.3374 97.8166 59.6567C98.4973 58.976 99.4206 58.5936 100.383 58.5936H178.423C179.386 58.5936 180.309 58.976 180.99 59.6567C181.67 60.3374 182.053 61.2606 182.053 62.2232C182.053 63.1858 181.67 64.109 180.99 64.7897C180.309 65.4704 179.386 65.8528 178.423 65.8528Z" fill="#CCCCCC"/>
<path d="M153.015 50.427H100.383C99.4206 50.427 98.4973 50.0446 97.8166 49.3639C97.1359 48.6833 96.7535 47.7601 96.7535 46.7974C96.7535 45.8348 97.1359 44.9116 97.8166 44.2309C98.4973 43.5502 99.4206 43.1678 100.383 43.1678H153.015C153.977 43.1678 154.901 43.5502 155.581 44.2309C156.262 44.9116 156.645 45.8348 156.645 46.7974C156.645 47.7601 156.262 48.6833 155.581 49.3639C154.901 50.0446 153.977 50.427 153.015 50.427Z" fill="#CCCCCC"/>
<path d="M68.0782 65.8528C74.3427 65.8528 79.4212 60.7746 79.4212 54.5103C79.4212 48.246 74.3427 43.1678 68.0782 43.1678C61.8136 43.1678 56.7352 48.246 56.7352 54.5103C56.7352 60.7746 61.8136 65.8528 68.0782 65.8528Z" fill="#6C63FF"/>
<path d="M154.373 95.4146C156.378 95.4146 158.003 93.7896 158.003 91.785C158.003 89.7804 156.378 88.1554 154.373 88.1554C152.369 88.1554 150.744 89.7804 150.744 91.785C150.744 93.7896 152.369 95.4146 154.373 95.4146Z" fill="#E6E6E6"/>
<path d="M167.078 95.4146C169.082 95.4146 170.707 93.7896 170.707 91.785C170.707 89.7804 169.082 88.1554 167.078 88.1554C165.073 88.1554 163.448 89.7804 163.448 91.785C163.448 93.7896 165.073 95.4146 167.078 95.4146Z" fill="#E6E6E6"/>
<path d="M179.782 95.4146C181.786 95.4146 183.411 93.7896 183.411 91.785C183.411 89.7804 181.786 88.1554 179.782 88.1554C177.777 88.1554 176.152 89.7804 176.152 91.785C176.152 93.7896 177.777 95.4146 179.782 95.4146Z" fill="#E6E6E6"/>
<path d="M192.472 13.9371C191.4 14.3233 190.425 14.94 189.616 15.7437C188.807 16.5474 188.185 17.5187 187.792 18.589C187.4 19.6594 187.246 20.8028 187.344 21.9387C187.441 23.0746 187.786 24.1755 188.354 25.1637L170.191 46.095L184.468 47.9863L199.527 27.8196C201.124 26.7544 202.275 25.1405 202.761 23.2837C203.247 21.4269 203.036 19.4562 202.166 17.745C201.297 16.0338 199.83 14.7011 198.043 13.9992C196.256 13.2974 194.274 13.2753 192.472 13.9371Z" fill="#FFB8B8"/>
<path d="M71.1943 22.317C71.5817 23.3893 71.7293 24.5334 71.6267 25.6688C71.5241 26.8043 71.1738 27.9034 70.6004 28.8889C70.027 29.8743 69.2445 30.722 68.3081 31.3723C67.3716 32.0226 66.304 32.4597 65.1803 32.6528L60.6603 59.9947L50.0915 50.2119L56.0041 25.7474C55.8048 23.8383 56.3128 21.9224 57.4318 20.3628C58.5508 18.8033 60.203 17.7083 62.0754 17.2855C63.9478 16.8626 65.9103 17.1413 67.591 18.0686C69.2716 18.996 70.5537 20.5076 71.1943 22.317V22.317Z" fill="#FFB8B8"/>
<path d="M99.5803 298.856L109.089 298.856L113.612 262.183L99.5787 262.184L99.5803 298.856Z" fill="#FFB8B8"/>
<path d="M97.1548 295.752L115.88 295.751H115.88C117.447 295.751 118.999 296.06 120.447 296.659C121.895 297.259 123.21 298.138 124.318 299.246C125.426 300.354 126.305 301.669 126.905 303.117C127.505 304.565 127.813 306.117 127.813 307.684V308.071L97.1554 308.072L97.1548 295.752Z" fill="#2F2E41"/>
<path d="M50.7204 298.856L60.2287 298.856L64.7517 262.183L50.7189 262.184L50.7204 298.856Z" fill="#FFB8B8"/>
<path d="M48.295 295.752L67.0198 295.751H67.0206C68.5876 295.751 70.1394 296.06 71.5871 296.659C73.0349 297.259 74.3504 298.138 75.4585 299.246C76.5666 300.354 77.4456 301.669 78.0453 303.117C78.645 304.565 78.9536 306.117 78.9536 307.684V308.071L48.2956 308.072L48.295 295.752Z" fill="#2F2E41"/>
<path d="M97.5954 48.4761C108.116 48.4761 116.644 39.9483 116.644 29.4286C116.644 18.909 108.116 10.3811 97.5954 10.3811C87.0752 10.3811 78.547 18.909 78.547 29.4286C78.547 39.9483 87.0752 48.4761 97.5954 48.4761Z" fill="#FFB8B8"/>
<path d="M95.3121 286.673L93.7371 186.317C93.7331 186.033 93.6255 185.761 93.4347 185.551C93.2438 185.341 92.9827 185.208 92.7007 185.177C92.4187 185.146 92.135 185.219 91.9032 185.383C91.6714 185.546 91.5074 185.789 91.4421 186.065L65.6231 284.227C65.4288 285.013 64.9708 285.708 64.3255 286.196C63.6802 286.684 62.8869 286.936 62.0781 286.91L47.8932 286.303C47.411 286.282 46.9383 286.162 46.505 285.949C46.0717 285.736 45.6873 285.436 45.3759 285.067C45.0645 284.699 44.8331 284.269 44.6961 283.806C44.5591 283.344 44.5196 282.857 44.58 282.379L66.4885 156.234L66.5334 155.878L127.556 158.765L127.954 158.784L114.868 286.883C114.799 287.76 114.403 288.579 113.759 289.178C113.114 289.776 112.268 290.111 111.388 290.114H98.8017C97.8857 290.11 97.0076 289.748 96.3554 289.105C95.7031 288.462 95.3286 287.589 95.3121 286.673Z" fill="#2F2E41"/>
<path d="M143.509 167.267L54.9577 160C54.4233 159.956 53.9061 159.79 53.4463 159.514C52.9866 159.238 52.5966 158.859 52.3068 158.408C52.017 157.957 51.8351 157.445 51.7751 156.912C51.7152 156.379 51.779 155.84 51.9614 155.335L65.9064 116.783L66.7088 71.0252C66.7379 69.3641 67.0966 67.7254 67.764 66.204C68.4314 64.6826 69.3942 63.3089 70.5966 62.1625C71.7991 61.0161 73.2172 60.1199 74.7687 59.5258C76.3203 58.9317 77.9743 58.6516 79.635 58.7017L85.5237 53.364H107.099L108.978 55.8268L123.991 58.1337C126.665 58.5558 129.132 59.8265 131.028 61.7582C132.925 63.6899 134.15 66.1802 134.523 68.8614L147.253 163.323C147.319 163.816 147.279 164.317 147.136 164.793C146.993 165.269 146.75 165.71 146.423 166.084C146.096 166.459 145.692 166.759 145.24 166.965C144.787 167.171 144.296 167.278 143.799 167.279C143.702 167.279 143.606 167.275 143.509 167.267Z" fill="#2F2E41"/>
<path d="M126.256 62.5694L164.012 51.5077L181.1 29.0116C181.57 28.392 182.234 27.9474 182.986 27.7484C183.739 27.5495 184.536 27.6076 185.251 27.9135L195.92 32.4734C196.375 32.6678 196.783 32.9567 197.118 33.3209C197.452 33.6851 197.706 34.1162 197.861 34.5858C198.017 35.0554 198.07 35.5527 198.019 36.0446C197.968 36.5366 197.812 37.012 197.563 37.4393L184.793 59.3522C182.714 62.9367 179.549 65.7674 175.755 67.4354L131.346 87.0656L126.256 62.5694Z" fill="#2F2E41"/>
<path d="M53.8178 79.1166C51.5615 77.4911 49.7621 75.3117 48.5933 72.7884C47.4245 70.2652 46.9258 67.4833 47.1452 64.7112L48.8021 42.7582C48.8704 41.8813 49.2665 41.0624 49.9115 40.4644C50.5564 39.8664 51.4029 39.5332 52.2824 39.5311H52.3133L64.8244 39.6425C65.3369 39.6471 65.8422 39.7646 66.3042 39.9866C66.7662 40.2085 67.1736 40.5295 67.4976 40.9267C67.8215 41.3238 68.0541 41.7875 68.1786 42.2846C68.3032 42.7818 68.3167 43.3003 68.2182 43.8033L65.8969 55.6466L82.4628 62.6459L68.5129 89.7837L53.8178 79.1166Z" fill="#2F2E41"/>
<path d="M108.677 6.58886C108.677 6.58886 88.7565 -4.1367 77.8987 8.52176C67.041 21.1802 82.0354 40.9753 82.0354 40.9753L103.4 43.6697C103.4 43.6697 104.176 29.147 109.263 29.429C114.35 29.7109 130.148 11.3854 108.677 6.58886Z" fill="#2F2E41"/>
<path d="M164.417 309.162H0.775553C0.569864 309.162 0.372598 309.08 0.227154 308.935C0.0817093 308.79 0 308.592 0 308.387C0 308.181 0.0817093 307.984 0.227154 307.838C0.372598 307.693 0.569864 307.611 0.775553 307.611H164.417C164.623 307.611 164.82 307.693 164.966 307.838C165.111 307.984 165.193 308.181 165.193 308.387C165.193 308.592 165.111 308.79 164.966 308.935C164.82 309.08 164.623 309.162 164.417 309.162Z" fill="#CCCCCC"/>
</g>
<defs>
<clipPath id="clip0">
<rect width="736" height="441" fill="white"/>
</clipPath>
</defs>
</svg>
